<?xml version="1.0" encoding="UTF-8" standalone="no"?>
<!-- Created with Inkscape (http://www.inkscape.org/) -->

<svg
   xmlns:osb="http://www.openswatchbook.org/uri/2009/osb"
   xmlns:dc="http://purl.org/dc/elements/1.1/"
   xmlns:cc="http://creativecommons.org/ns#"
   xmlns:rdf="http://www.w3.org/1999/02/22-rdf-syntax-ns#"
   xmlns:svg="http://www.w3.org/2000/svg"
   xmlns="http://www.w3.org/2000/svg"
   xmlns:sodipodi="http://sodipodi.sourceforge.net/DTD/sodipodi-0.dtd"
   xmlns:inkscape="http://www.inkscape.org/namespaces/inkscape"
   id="svg2"
   version="1.1"
   inkscape:version="0.91 r13725"
   width="140"
   height="140"
   xml:space="preserve"
   sodipodi:docname="smir-logo.svg"
   inkscape:export-filename="/Users/mkistler/SiCAS/CI/smir-logo.png"
   inkscape:export-xdpi="90"
   inkscape:export-ydpi="90"><metadata
     id="metadata8"><rdf:RDF><cc:Work
         rdf:about=""><dc:format>image/svg+xml</dc:format><dc:type
           rdf:resource="http://purl.org/dc/dcmitype/StillImage" /><dc:title></dc:title></cc:Work></rdf:RDF></metadata><defs
     id="defs6"><clipPath
       clipPathUnits="userSpaceOnUse"
       id="clipPath18"><path
         d="M 0,1501.88 0,0 l 3189.65,0 0,1501.88 -3189.65,0 z"
         id="path20"
         inkscape:connector-curvature="0" /></clipPath><linearGradient
       osb:paint="solid"
       id="linearGradient3978"><stop
         id="stop3980"
         offset="0"
         style="stop-color:#ffffff;stop-opacity:1;" /></linearGradient><inkscape:perspective
       id="perspective54729"
       inkscape:persp3d-origin="372.04724 : 350.78739 : 1"
       inkscape:vp_z="744.09448 : 526.18109 : 1"
       inkscape:vp_y="0 : 1000 : 0"
       inkscape:vp_x="0 : 526.18109 : 1"
       sodipodi:type="inkscape:persp3d" /><inkscape:perspective
       sodipodi:type="inkscape:persp3d"
       inkscape:vp_x="0 : 0.5 : 1"
       inkscape:vp_y="0 : 1000 : 0"
       inkscape:vp_z="1 : 0.5 : 1"
       inkscape:persp3d-origin="0.5 : 0.33333333 : 1"
       id="perspective54703" /><clipPath
       id="clipPath18-9"
       clipPathUnits="userSpaceOnUse"><path
         inkscape:connector-curvature="0"
         id="path20-5"
         d="M 0,1501.88 0,0 l 3189.65,0 0,1501.88 -3189.65,0 z" /></clipPath></defs><sodipodi:namedview
     pagecolor="#ffffff"
     bordercolor="#666666"
     borderopacity="1"
     objecttolerance="10"
     gridtolerance="10"
     guidetolerance="10"
     inkscape:pageopacity="0"
     inkscape:pageshadow="2"
     inkscape:window-width="2560"
     inkscape:window-height="1315"
     id="namedview4"
     showgrid="false"
     inkscape:zoom="1.0508825"
     inkscape:cx="341.2051"
     inkscape:cy="84.957205"
     inkscape:window-x="0"
     inkscape:window-y="1"
     inkscape:window-maximized="1"
     inkscape:current-layer="g10"
     fit-margin-top="10"
     fit-margin-left="10"
     fit-margin-right="10"
     fit-margin-bottom="10" /><g
     id="g10"
     inkscape:groupmode="layer"
     inkscape:label="ink_ext_XXXXXX"
     transform="matrix(1.25,0,0,-1.25,-503.69252,260.43699)"
     style="display:inline"><g
       id="g3353"
       transform="translate(-3.2,6.4)"><g
         transform="matrix(1.6588335,0,0,1.6588335,17.852833,-20.89692)"
         id="g4735"><path
           id="path4737"
           style="fill:#b3b3b3;fill-opacity:1;fill-rule:nonzero;stroke:none"
           d="m 273.46198,86.063228 c 8.29307,0 15.04269,6.751287 15.03998,15.041612 0,8.29198 -6.74691,15.03891 -15.03998,15.03891 -8.29307,0 -15.03998,-6.74693 -15.03998,-15.03891 0,-8.292502 6.74691,-15.041612 15.03998,-15.041612 m 17.35404,15.041612 c 0,-9.585933 -7.76756,-17.352947 -17.35404,-17.355646 -9.58377,0 -17.35403,7.769713 -17.35403,17.355646 0,9.58322 7.77026,17.3551 17.35403,17.3551 9.58431,0 17.35404,-7.77188 17.35404,-17.3551"
           inkscape:connector-curvature="0" /><path
           id="path4739"
           style="fill:#b3b3b3;fill-opacity:1;fill-rule:nonzero;stroke:none"
           d="m 267.55163,85.768625 c -5.90798,1.986169 -8.86639,7.418944 -10.51117,13.128608 l 12.63206,3.562867 c 0.60261,-3.128257 2.19802,-3.4249 3.46134,-4.071705"
           sodipodi:nodetypes="cccc"
           inkscape:connector-curvature="0" /><path
           id="path4741"
           style="fill:#000000;fill-opacity:1;fill-rule:nonzero;stroke:none"
           d="m 276.20901,107.73068 c 3.65909,-1.51671 5.39932,-5.71265 3.88134,-9.374826 -1.5184,-3.663221 -5.71504,-5.39347 -9.37413,-3.876777 -3.65908,1.516692 -5.40103,5.708483 -3.88263,9.371703 1.51798,3.66219 5.71634,5.39658 9.37542,3.8799"
           inkscape:connector-curvature="0" /></g><path
         inkscape:connector-curvature="0"
         id="path4747"
         style="fill:#ed1c24;fill-opacity:1;fill-rule:nonzero;stroke:none"
         d="m 423.85116,121.19438 c -8.42501,16.09197 5.95053,40.25455 32.10931,53.96122 21.86714,11.44937 45.03506,11.96806 56.97655,2.45253 -11.87334,12.88414 -39.02907,13.24573 -64.54092,-0.12592 -28.38836,-14.86651 -43.96995,-41.07729 -34.82408,-58.53242 9.15395,-17.45466 39.57434,-19.559234 67.94882,-4.69042 0.84331,0.44407 1.67392,0.89807 2.49412,1.35739 -25.42983,-12.31787 -51.99063,-10.00339 -60.1638,5.57762" /></g></g><g
     inkscape:groupmode="layer"
     id="layer1"
     inkscape:label="version2"
     transform="translate(-1.9201718e-6,16.197886)"
     style="display:none"><g
       id="g3360"
       transform="translate(0,-8)"><path
         d="M 144.5678,-2.4023658 C 152.36128,21.157297 147.4511,82.555672 86.463767,106.05085 54.217454,118.47413 20.730192,117.7812 6.5404542,102.38361 19.835479,122.33242 57.142117,128.57608 95.432317,115.89786 138.03674,101.79592 165.70685,69.656072 157.25308,44.102622 148.78092,18.549772 107.40059,9.2686842 64.816092,23.358834 c -1.273125,0.4259 -2.521738,0.850275 -3.7443,1.297638 C 83.206654,-3.3430408 137.00874,-25.211341 144.5678,-2.4023658"
         style="fill:#ed1c24;fill-opacity:1;fill-rule:nonzero;stroke:none"
         id="path112"
         inkscape:connector-curvature="0" /><g
         id="g3461"
         transform="matrix(2.0735419,0,0,-2.0735419,-480.4249,270.36026)"><path
           inkscape:connector-curvature="0"
           d="m 273.46198,86.063228 c 8.29307,0 15.04269,6.751287 15.03998,15.041612 0,8.29198 -6.74691,15.03891 -15.03998,15.03891 -8.29307,0 -15.03998,-6.74693 -15.03998,-15.03891 0,-8.292502 6.74691,-15.041612 15.03998,-15.041612 m 17.35404,15.041612 c 0,-9.585933 -7.76756,-17.352947 -17.35404,-17.355646 -9.58377,0 -17.35403,7.769713 -17.35403,17.355646 0,9.58322 7.77026,17.3551 17.35403,17.3551 9.58431,0 17.35404,-7.77188 17.35404,-17.3551"
           style="fill:#b3b3b3;fill-opacity:1;fill-rule:nonzero;stroke:none"
           id="path3463" /><path
           inkscape:connector-curvature="0"
           sodipodi:nodetypes="cccc"
           d="m 267.55163,85.768625 c -5.90798,1.986169 -8.86639,7.418944 -10.51117,13.128608 l 12.63206,3.562867 c 0.60261,-3.128257 2.19802,-3.4249 3.46134,-4.071705"
           style="fill:#b3b3b3;fill-opacity:1;fill-rule:nonzero;stroke:none"
           id="path3465" /><path
           inkscape:connector-curvature="0"
           d="m 276.20901,107.73068 c 3.65909,-1.51671 5.39932,-5.71265 3.88134,-9.374826 -1.5184,-3.663221 -5.71504,-5.39347 -9.37413,-3.876777 -3.65908,1.516692 -5.40103,5.708483 -3.88263,9.371703 1.51798,3.66219 5.71634,5.39658 9.37542,3.8799"
           style="fill:#000000;fill-opacity:1;fill-rule:nonzero;stroke:none"
           id="path3467" /></g></g></g></svg>